HIERARCHY
ROOT Hips
{
	OFFSET 0.00000 0.00000 0.00000
	CHANNELS 6 Xposition Yposition Zposition Zrotation Yrotation Xrotation 
	JOINT LHipJoint
	{
		OFFSET 0 0 0
		CHANNELS 3 Zrotation Yrotation Xrotation
		JOINT LeftHip
		{
			OFFSET 1.30186 -1.90722 0.65024
			CHANNELS 3 Zrotation Yrotation Xrotation
			JOINT LeftKnee
			{
				OFFSET 2.56413 -7.04489 0.00000
				CHANNELS 3 Zrotation Yrotation Xrotation
				JOINT LeftAnkle
				{
					OFFSET 2.79321 -7.67428 0.00000
					CHANNELS 3 Zrotation Yrotation Xrotation
					JOINT LeftToe
					{
						OFFSET 0.15723 -0.43198 2.08537
						CHANNELS 3 Zrotation Yrotation Xrotation
						End Site
						{
							OFFSET 0.00000 -0.00000 1.07411
						}
					}
				}
			}
		}
	}
	JOINT RHipJoint
	{
		OFFSET 0 0 0
		CHANNELS 3 Zrotation Yrotation Xrotation
		JOINT RightHip
		{
			OFFSET -1.28627 -1.90723 0.65024
			CHANNELS 3 Zrotation Yrotation Xrotation
			JOINT RightKnee
			{
				OFFSET -2.56567 -7.04913 0.00000
				CHANNELS 3 Zrotation Yrotation Xrotation
				JOINT RightAnkle
				{
					OFFSET -2.75597 -7.57198 0.00000
					CHANNELS 3 Zrotation Yrotation Xrotation
					JOINT RightToe
					{
						OFFSET -0.17500 -0.48081 2.22901
						CHANNELS 3 Zrotation Yrotation Xrotation
						End Site
						{
							OFFSET -0.00000 -0.00000 1.14762
						}
					}
				}
			}
		}
	}
	JOINT lowerback
	{
		OFFSET 0 0 0
		CHANNELS 3 Zrotation Yrotation Xrotation
		JOINT Chest
		{
			OFFSET -0.04522 2.07467 -0.16566
			CHANNELS 3 Zrotation Yrotation Xrotation
			JOINT Chest2
			{
				OFFSET -0.01178 2.08825 -0.05393
				CHANNELS 3 Zrotation Yrotation Xrotation
				JOINT lowerneck
				{
					OFFSET 0 0 0
					CHANNELS 3 Zrotation Yrotation Xrotation
					JOINT Neck
					{
						OFFSET -0.05182 1.80489 0.16014
						CHANNELS 3 Zrotation Yrotation Xrotation
						JOINT Head
						{
							OFFSET 0.14739 1.78840 -0.33342
							CHANNELS 3 Zrotation Yrotation Xrotation
							End Site
							{
								OFFSET 0.04364 1.83899 -0.13460
							}
						}
					}
				}
				JOINT LeftCollar
				{
					OFFSET 0 0 0
					CHANNELS 3 Zrotation Yrotation Xrotation
					JOINT LeftShoulder
					{
						OFFSET 3.01264 1.29090 -0.06579
CHANNELS 3 Zrotation Xrotation Yrotation
						JOINT LeftElbow
						{
OFFSET 0 -5.556800 0.000000
CHANNELS 3 Zrotation Xrotation Yrotation
							JOINT LeftWrist
							{
OFFSET 0 -3.639790 -0.000000
CHANNELS 3 Zrotation Xrotation Yrotation
								JOINT lhand
								{
									OFFSET 0 0 0
CHANNELS 3 Zrotation Xrotation Yrotation
									JOINT LFingers
									{
OFFSET 0 -0.569420 -0.000000
CHANNELS 3 Zrotation Xrotation Yrotation
										End Site
										{
OFFSET 0 -0.459080 -0.000000
										}
									}
								}
								JOINT LThumb
								{
OFFSET 0 0.000000 0.000000
CHANNELS 3 Zrotation Xrotation Yrotation
									End Site
									{
OFFSET 0 -0.466090 0.466090
									}
								}
							}
						}
					}
				}
				JOINT RightCollar
				{
					OFFSET 0 0 0
					CHANNELS 3 Zrotation Yrotation Xrotation
					JOINT RightShoulder
					{
						OFFSET -3.15796 1.37283 -0.36748
CHANNELS 3 Zrotation Xrotation Yrotation
						JOINT RightElbow
						{
OFFSET 0 -5.343390 0.000000
CHANNELS 3 Zrotation Xrotation Yrotation
							JOINT RightWrist
							{
OFFSET 0 -3.651010 -0.000000
CHANNELS 3 Zrotation Xrotation Yrotation
								JOINT rhand
								{
									OFFSET 0 0 0
CHANNELS 3 Zrotation Xrotation Yrotation
									JOINT RFingers
									{
OFFSET 0 -0.694250 -0.000000
CHANNELS 3 Zrotation Xrotation Yrotation
										End Site
										{
OFFSET 0 -0.559720 -0.000000
										}
									}
								}
								JOINT RThumb
								{
OFFSET 0 0.000000 0.000000
CHANNELS 3 Zrotation Xrotation Yrotation
									End Site
									{
OFFSET 0 -0.568270 0.568270
									}
								}
							}
						}
					}
				}
			}
		}
	}
}
MOTION
Frames: 8
Frame Time: 0.008333333333333333
14.489100 18.969400 24.227400 -177.763000 -3.961700 -178.986000 0.000000 0.000000 0.000000 -1.550300 -25.994200 -51.439200 2.033500 8.935600 25.594000 0.468000 -2.847800 -12.258700 0.492600 -4.500200 -12.488200 0.000000 0.000000 0.000000 28.328500 13.632900 6.673900 -0.773800 -5.616700 15.676300 -0.362600 -4.449000 -13.890700 -1.230700 -7.035400 19.820300 3.546200 3.296200 2.345500 -0.538400 4.422600 1.485100 -2.602800 2.227500 0.525200 -4.364700 -4.607200 -9.678400 1.907800 -6.233500 15.563600 0.775600 -3.237000 6.525200 0.000000 -0.000000 0.000000 2.900400 13.042200 -8.337500 8.246600 -13.951800 1.010800 18.957800 15.634200 -19.475900 0.000000 0.000000 0.000000 -7.125000 0.000000 0.000000 -9.328900 50.250600 1.216600 0.000000 -0.000000 0.000000 -21.395200 -57.352600 -10.679400 -9.372800 -15.752600 -1.299500 -18.009400 -6.187600 -30.913200 0.000000 0.000000 0.000000 7.125000 0.000000 -0.000000 7.615900 -1.965000 7.942200
14.485254 18.968727 24.164944 -177.790406 -4.005886 -179.022060 0.000000 0.000000 0.000000 -1.627949 -26.004489 -51.636425 1.983929 8.831747 25.270853 0.440402 -2.468015 -11.925745 0.429423 -4.192679 -11.621171 0.000000 0.000000 0.000000 28.303402 13.319321 6.995796 -0.742500 -5.503087 15.349547 -0.362071 -4.371783 -13.824782 -1.179735 -6.891592 19.395320 3.605531 3.333366 2.365934 -0.636772 4.475632 1.455338 -2.739251 2.254665 0.499766 -4.338592 -4.659030 -9.454202 2.060935 -6.344229 15.461862 0.816853 -3.280128 6.461590 0.000000 0.000000 0.000000 3.158206 13.574784 -7.839967 8.109043 -13.729189 0.978154 18.799857 15.984560 -18.915526 0.000000 0.000000 0.000000 -7.125000 0.000000 0.000000 -9.305581 49.652002 1.075918 0.000000 0.000000 0.000000 -21.807199 -57.613483 -10.641705 -9.467470 -15.902177 -1.325463 -18.022045 -6.706000 -30.857956 0.000000 0.000000 0.000000 7.125000 0.000000 0.000000 7.602245 -1.911679 7.920852
14.481407 18.968054 24.102488 -177.817811 -4.050071 -179.058120 0.000000 0.000000 0.000000 -1.705599 -26.014778 -51.833649 1.934359 8.727894 24.947707 0.412804 -2.088230 -11.592790 0.366245 -3.885159 -10.754142 0.000000 0.000000 0.000000 28.278304 13.005743 7.317693 -0.711200 -5.389473 15.022795 -0.361542 -4.294567 -13.758864 -1.128770 -6.747785 18.970339 3.664862 3.370532 2.386368 -0.735144 4.528665 1.425577 -2.875703 2.281831 0.474331 -4.312485 -4.710861 -9.230005 2.214070 -6.454957 15.360125 0.858106 -3.323256 6.397980 0.000000 0.000000 0.000000 3.416011 14.107367 -7.342434 7.971485 -13.506578 0.945507 18.641914 16.334920 -18.355152 0.000000 0.000000 0.000000 -7.125000 0.000000 0.000000 -9.282262 49.053405 0.935235 0.000000 0.000000 0.000000 -22.219197 -57.874366 -10.604010 -9.562140 -16.051755 -1.351427 -18.034690 -7.224400 -30.802712 0.000000 0.000000 0.000000 7.125000 0.000000 0.000000 7.588590 -1.858358 7.899505
14.479109 18.967646 24.040607 -177.803631 -4.051963 -179.076927 0.000000 0.000000 0.000000 -1.645970 -26.031969 -52.071531 1.889787 8.631960 24.651060 0.391886 -1.759498 -11.343980 0.320233 -3.627542 -10.032133 0.000000 0.000000 0.000000 28.331954 12.822541 7.734397 -0.676935 -5.259004 14.649192 -0.351502 -4.323837 -13.633930 -1.076434 -6.592651 18.514789 3.691499 3.404114 2.376807 -0.772420 4.571876 1.461379 -2.926770 2.304970 0.525167 -4.248773 -4.753091 -9.292662 2.217850 -6.518083 15.363503 0.841890 -3.348068 6.409977 0.000000 0.000000 0.000000 3.548086 14.450514 -6.503099 7.813666 -13.250035 0.909322 18.549667 16.987221 -17.968510 0.000000 0.000000 0.000000 -7.125000 0.000000 0.000000 -9.255094 48.643404 0.838572 0.000000 0.000000 0.000000 -22.700432 -58.319864 -10.849233 -9.616152 -16.136874 -1.366374 -17.893246 -7.246423 -30.787594 0.000000 0.000000 0.000000 7.125000 0.000000 0.000000 7.667841 -1.817469 7.978141
14.476946 18.967261 23.978776 -177.785841 -4.050184 -179.094235 0.000000 0.000000 0.000000 -1.574427 -26.049759 -52.312941 1.845650 8.536713 24.356714 0.371548 -1.435198 -11.102474 0.275711 -3.374255 -9.322711 0.000000 0.000000 0.000000 28.392439 12.650654 8.159329 -0.642414 -5.127072 14.271522 -0.340636 -4.362349 -13.503873 -1.023978 -6.436535 18.056585 3.715299 3.437386 2.364643 -0.804393 4.614234 1.502873 -2.970427 2.327760 0.582623 -4.181797 -4.794488 -9.380216 2.208667 -6.577077 15.376003 0.820687 -3.371291 6.428536 0.000000 0.000000 0.000000 3.669248 14.777218 -5.634099 7.654088 -12.990546 0.872829 18.463123 17.665727 -17.596947 0.000000 0.000000 0.000000 -7.125000 0.000000 0.000000 -9.227593 48.249772 0.745729 0.000000 0.000000 0.000000 -23.187676 -58.781385 -11.119011 -9.666637 -16.216398 -1.380365 -17.738428 -7.225364 -30.775958 0.000000 0.000000 0.000000 7.125000 0.000000 0.000000 7.755154 -1.777659 8.065454
14.474984 18.961423 23.917551 -177.752295 -4.020650 -179.110736 0.000000 0.000000 0.000000 -1.446323 -26.087425 -52.562513 1.806118 8.449466 24.088224 0.354685 -1.087586 -10.923790 0.297486 -3.500857 -9.676997 0.000000 0.000000 0.000000 28.469731 12.467698 8.613754 -0.606357 -4.981808 13.857209 -0.326739 -4.374358 -13.303842 -0.937102 -6.157359 17.244351 3.736189 3.454578 2.377163 -0.806793 4.634979 1.559314 -2.983096 2.339399 0.637332 -4.209157 -4.809059 -9.493666 2.259559 -6.586985 15.333236 0.838106 -3.369384 6.437601 0.000000 0.000000 0.000000 3.701730 15.046150 -4.497888 7.489379 -12.721483 0.836457 18.316099 18.732889 -18.005521 0.000000 0.000000 0.000000 -7.125000 0.000000 0.000000 -9.491460 48.645528 0.865111 0.000000 0.000000 0.000000 -23.692616 -59.309204 -11.392141 -9.686618 -16.247886 -1.385953 -17.664977 -7.162409 -30.847791 0.000000 0.000000 0.000000 7.125000 0.000000 0.000000 7.805299 -1.836587 8.126426
14.473061 18.954547 23.856441 -177.715755 -3.985840 -179.127083 0.000000 0.000000 0.000000 -1.307467 -26.128870 -52.813635 1.767461 8.363739 23.824648 0.338482 -0.735544 -10.757049 0.331864 -3.699668 -10.233477 0.000000 0.000000 0.000000 28.550217 12.282637 9.073784 -0.570009 -4.834010 13.435931 -0.312267 -4.381330 -13.090511 -0.843682 -5.854790 16.364821 3.756527 3.468713 2.394376 -0.803572 4.651614 1.618597 -2.989876 2.348919 0.691518 -4.254449 -4.818531 -9.612040 2.321871 -6.587562 15.279963 0.862868 -3.362701 6.444861 0.000000 0.000000 0.000000 3.717356 15.304099 -3.310886 7.323695 -12.450599 0.800109 18.157579 19.873926 -18.562385 0.000000 0.000000 0.000000 -7.125000 0.000000 0.000000 -9.810713 49.191334 1.024833 0.000000 0.000000 0.000000 -24.200919 -59.849624 -11.665910 -9.700802 -16.270244 -1.389944 -17.606992 -7.091491 -30.935489 0.000000 0.000000 0.000000 7.125000 0.000000 0.000000 7.848379 -1.914285 8.182392
14.470662 18.944857 23.794783 -177.595124 -3.902002 -179.211068 0.000000 0.000000 0.000000 -1.074724 -26.166952 -52.948384 1.736739 8.294464 23.612331 0.330140 -0.416077 -10.719513 0.385509 -3.975184 -11.008444 0.000000 0.000000 0.000000 28.741483 12.125656 9.586317 -0.535195 -4.684895 13.012459 -0.304778 -4.377260 -12.972164 -0.815779 -5.763252 16.099076 3.874337 3.511695 2.477435 -0.780754 4.710661 1.670933 -3.035556 2.379462 0.711812 -4.323395 -4.836814 -9.628993 2.449481 -6.611099 15.173458 0.913258 -3.364939 6.421483 0.000000 0.000000 0.000000 3.750641 15.614624 -2.211557 7.186273 -12.225234 0.770816 18.089730 20.965643 -19.118006 0.000000 0.000000 0.000000 -7.125000 0.000000 0.000000 -10.055088 49.747084 1.190515 0.000000 0.000000 0.000000 -24.761541 -60.305735 -12.031153 -9.716302 -16.294612 -1.394300 -17.670719 -7.064190 -30.967395 0.000000 0.000000 0.000000 7.125000 0.000000 0.000000 7.815631 -1.957908 8.153316
